<?xml version="1.0" encoding="UTF-8" standalone="no"?>
<!-- Created with Inkscape (http://www.inkscape.org/) -->

<svg
   width="163.63493mm"
   height="190mm"
   viewBox="0 0 163.63493 190"
   version="1.1"
   id="svg5"
   xmlns="http://www.w3.org/2000/svg"
   xmlns:svg="http://www.w3.org/2000/svg">
  <defs
     id="defs2" />
  <g
     id="g3994"
     transform="matrix(0.47995627,0,0,0.47995627,11.288395,-3.0496756)"
     style="display:inline">
    <g
       id="g3992"
       transform="matrix(1.0928483,0,0,1.0928483,32.199685,-20.493238)"
       style="display:inline;opacity:1;fill:#999999">
      <path
         id="path3982"
         style="display:inline;fill:#999999;fill-opacity:1;stroke-width:9.98854"
         d="m -50.985409,73.792004 16.199431,32.509626 6.305405,12.65195 18.087098,6.73104 25.201049,9.37662 v 0.002 l 152.165166,56.62364 17.31652,6.44306 12.42885,4.62502 5.14717,-10.32915 59.12049,-118.633386 H 246.24995 L 189.39371,187.88581 172.01706,181.563 225.72455,73.792004 H 212.8052 L 161.08189,177.58356 24.07027,127.72102 -2.8064198,73.792004 H -15.725775 L 8.2869789,121.97732 -16.78907,112.8507 -36.252756,73.792004 Z m 30.890946,61.989166 7.335472,14.72 18.0870973,6.73104 25.2010497,9.37662 125.641324,46.75493 17.31494,6.44307 12.43043,4.62501 5.03958,-10.11396 -12.42885,-4.62502 -17.31652,-6.44306 -138.016376,-51.35938 -25.20105,-9.37821 z m 15.7215813,31.5476 6.3971774,12.83549 18.0870973,6.73104 25.199468,9.37662 15.860822,5.90192 41.311877,15.37348 32.63304,12.14246 10.89719,4.05539 17.31495,6.44307 12.43043,4.6266 4.394,-8.81966 -12.43043,-4.62502 -17.31494,-6.44306 -111.492535,-41.48909 -25.201049,-9.3782 z m 14.7817047,29.66309 94.590567,189.81088 64.99709,-130.42457 -12.43043,-4.6266 -52.56666,105.4846 L 28.497502,203.7229 Z m 43.289729,16.10924 51.300838,102.94503 35.25172,-70.73762 -10.89719,-4.0554 -24.35453,48.87045 -35.441597,-71.12053 z" />
      <text
         xml:space="preserve"
         style="font-style:normal;font-variant:normal;font-weight:300;font-stretch:normal;font-size:137.502px;font-family:Montserrat;-inkscape-font-specification:'Montserrat Light';opacity:1;fill:#999999;fill-opacity:1;stroke:none;stroke-width:19.4885;stroke-dasharray:none;stroke-opacity:1"
         x="54.124367"
         y="121.91778"
         id="text3990"><tspan
           id="tspan3988"
           style="font-style:normal;font-variant:normal;font-weight:500;font-stretch:normal;font-size:137.502px;font-family:Montserrat;-inkscape-font-specification:'Montserrat Medium';stroke-width:19.4884"
           x="54.124367"
           y="121.91778">G</tspan></text>
    </g>
  </g>
</svg>
