<?xml version="1.0" encoding="UTF-8" standalone="no"?>
<!-- Created with Inkscape (http://www.inkscape.org/) -->

<svg
   width="190mm"
   height="190mm"
   viewBox="0 0 190 190"
   version="1.1"
   id="svg5"
   xmlns:xlink="http://www.w3.org/1999/xlink"
   xmlns="http://www.w3.org/2000/svg"
   xmlns:svg="http://www.w3.org/2000/svg">
  <defs
     id="defs2">
    <linearGradient
       id="linearGradient4149">
      <stop
         style="stop-color:#1c1c30;stop-opacity:1;"
         offset="0"
         id="stop4145" />
      <stop
         style="stop-color:#090b15;stop-opacity:1;"
         offset="1"
         id="stop4147" />
    </linearGradient>
    <radialGradient
       xlink:href="#linearGradient4149"
       id="radialGradient4943"
       cx="-65.099678"
       cy="66.514885"
       fx="-65.099678"
       fy="66.514885"
       r="229.41074"
       gradientUnits="userSpaceOnUse"
       gradientTransform="matrix(0.27455003,1.5404411,-1.0110936,0.18020536,47.618596,127.14972)" />
  </defs>
  <g
     id="layer1"
     transform="matrix(0.53556606,0,0,0.53556535,17.219129,-13.428381)"
     style="display:none;fill:#808080;fill-opacity:1;stroke:#404040;stroke-width:0.466796;stroke-dasharray:none;stroke-opacity:0.675805">
    <g
       id="g3116"
       transform="matrix(0.66743925,0,0,0.66743925,77.888581,22.043574)"
       style="opacity:1;fill:#808080;fill-opacity:1;stroke:#404040;stroke-width:0.699383;stroke-dasharray:none;stroke-opacity:0.675805">
      <path
         id="path3112"
         style="display:inline;fill:#808080;fill-opacity:1;stroke:#404040;stroke-width:0.699383;stroke-dasharray:none;stroke-opacity:0.675805"
         d="m -78.349221,62.749835 19.04122,38.212635 7.411532,14.87142 21.260032,7.91184 29.6219498,11.02151 v 0.002 l 178.8587772,66.55686 20.35428,7.57334 14.60918,5.43636 6.05012,-12.14114 69.49171,-139.444682 H 271.02873 L 204.19847,196.85858 183.77351,189.42659 246.90265,62.749835 H 231.71692 L 170.92004,184.74905 9.8731196,126.13936 -21.71842,62.749835 H -36.904157 L -8.6789594,119.38807 -38.153981,108.66041 -61.032089,62.749835 Z m 36.309998,72.863635 8.622299,17.30226 21.260031,7.91183 29.62195,11.02152 147.681983,54.95692 20.35242,7.57335 14.61104,5.43635 5.92365,-11.8882 -14.60918,-5.43637 L 171.07069,214.9178 8.8427583,154.54869 -20.779192,143.5253 Z m 18.479544,37.08184 7.519404,15.08716 21.2600306,7.91184 29.6200914,11.02151 18.643211,6.93727 48.559022,18.07037 38.3577,14.27256 12.80883,4.76681 20.35243,7.57334 14.61104,5.43823 5.16482,-10.36686 -14.61104,-5.43636 -20.35242,-7.57334 L 27.322302,191.63052 -2.2996478,180.60715 Z M -6.1848903,207.56206 104.99925,430.67056 181.39847,277.36623 166.78743,271.928 104.99925,395.91727 15.077,215.47389 Z m 50.8838413,18.9352 60.300299,121.00419 41.43576,-83.14678 -12.80883,-4.76682 -28.62693,57.44356 -41.658947,-83.59687 z" />
      <text
         xml:space="preserve"
         style="font-style:normal;font-variant:normal;font-weight:300;font-stretch:normal;font-size:97.2156px;font-family:Montserrat;-inkscape-font-specification:'Montserrat Light';opacity:1;fill:#808080;fill-opacity:1;stroke:#404040;stroke-width:0.699383;stroke-dasharray:none;stroke-opacity:0.675805"
         x="-138.51057"
         y="516.37567"
         id="text3487"><tspan
           id="tspan3485"
           style="font-style:normal;font-variant:normal;font-weight:normal;font-stretch:normal;font-size:97.2156px;font-family:Montserrat;-inkscape-font-specification:Montserrat;fill:#808080;fill-opacity:1;stroke:#404040;stroke-width:0.699383;stroke-dasharray:none;stroke-opacity:0.675805"
           x="-138.51057"
           y="516.37567">AGEngine</tspan></text>
      <text
         xml:space="preserve"
         style="font-style:normal;font-variant:normal;font-weight:300;font-stretch:normal;font-size:161.623px;font-family:Montserrat;-inkscape-font-specification:'Montserrat Light';opacity:1;fill:#808080;fill-opacity:1;stroke:#404040;stroke-width:0.699383;stroke-dasharray:none;stroke-opacity:0.675805"
         x="45.199463"
         y="119.31808"
         id="text3979"><tspan
           id="tspan3977"
           style="font-style:normal;font-variant:normal;font-weight:500;font-stretch:normal;font-size:161.623px;font-family:Montserrat;-inkscape-font-specification:'Montserrat Medium';fill:#808080;fill-opacity:1;stroke:#404040;stroke-width:0.699383;stroke-dasharray:none;stroke-opacity:0.675805"
           x="45.199463"
           y="119.31808">G</tspan></text>
    </g>
  </g>
  <g
     id="g3994"
     transform="matrix(0.47995627,0,0,0.47995627,24.47093,-3.0496753)"
     style="display:none">
    <g
       id="g3992"
       transform="matrix(1.0928483,0,0,1.0928483,32.199685,-20.493238)"
       style="display:inline;opacity:1;fill:#808080;fill-opacity:1;stroke:#3b3b3b;stroke-width:0.476627;stroke-dasharray:none;stroke-opacity:0.675805">
      <path
         id="path3982"
         style="display:inline;fill:#808080;fill-opacity:1;stroke:#3b3b3b;stroke-width:0.476627;stroke-dasharray:none;stroke-opacity:0.675805"
         d="m -50.985409,73.792004 16.199431,32.509626 6.305405,12.65195 18.087098,6.73104 25.201049,9.37662 v 0.002 l 152.165166,56.62364 17.31652,6.44306 12.42885,4.62502 5.14717,-10.32915 59.12049,-118.633386 H 246.24995 L 189.39371,187.88581 172.01706,181.563 225.72455,73.792004 H 212.8052 L 161.08189,177.58356 24.07027,127.72102 -2.8064198,73.792004 H -15.725775 L 8.2869789,121.97732 -16.78907,112.8507 -36.252756,73.792004 Z m 30.890946,61.989166 7.335472,14.72 18.0870973,6.73104 25.2010497,9.37662 125.641324,46.75493 17.31494,6.44307 12.43043,4.62501 5.03958,-10.11396 -12.42885,-4.62502 -17.31652,-6.44306 -138.016376,-51.35938 -25.20105,-9.37821 z m 15.7215813,31.5476 6.3971774,12.83549 18.0870973,6.73104 25.199468,9.37662 15.860822,5.90192 41.311877,15.37348 32.63304,12.14246 10.89719,4.05539 17.31495,6.44307 12.43043,4.6266 4.394,-8.81966 -12.43043,-4.62502 -17.31494,-6.44306 -111.492535,-41.48909 -25.201049,-9.3782 z m 14.7817047,29.66309 94.590567,189.81088 64.99709,-130.42457 -12.43043,-4.6266 -52.56666,105.4846 L 28.497502,203.7229 Z m 43.289729,16.10924 51.300838,102.94503 35.25172,-70.73762 -10.89719,-4.0554 -24.35453,48.87045 -35.441597,-71.12053 z" />
      <text
         xml:space="preserve"
         style="font-style:normal;font-variant:normal;font-weight:300;font-stretch:normal;font-size:137.502px;font-family:Montserrat;-inkscape-font-specification:'Montserrat Light';opacity:1;fill:#808080;fill-opacity:1;stroke:#3b3b3b;stroke-width:0.476627;stroke-dasharray:none;stroke-opacity:0.675805"
         x="54.124367"
         y="121.91778"
         id="text3990"><tspan
           id="tspan3988"
           style="font-style:normal;font-variant:normal;font-weight:500;font-stretch:normal;font-size:137.502px;font-family:Montserrat;-inkscape-font-specification:'Montserrat Medium';fill:#808080;fill-opacity:1;stroke:#3b3b3b;stroke-width:0.476627;stroke-dasharray:none;stroke-opacity:0.675805"
           x="54.124367"
           y="121.91778">G</tspan></text>
    </g>
  </g>
  <g
     id="g2366"
     transform="matrix(0.47995627,0,0,0.47995627,24.47093,-3.0496753)"
     style="display:none">
    <g
       id="g2364"
       transform="matrix(0.86279613,0,0,0.86279613,56.355207,26.858987)"
       style="display:inline;opacity:1;fill:#808080;fill-opacity:1;stroke:#3b3b3b;stroke-width:0.476627;stroke-dasharray:none;stroke-opacity:0.675805">
      <rect
         style="display:inline;fill:url(#radialGradient4943);fill-opacity:1;stroke:none;stroke-width:6.03712;stroke-dasharray:none;stroke-opacity:1;paint-order:fill markers stroke"
         id="rect2420"
         width="458.82147"
         height="458.82147"
         x="-124.41057"
         y="-23.765657"
         ry="49.11969"
         rx="49.11969" />
      <path
         id="path2358"
         style="display:inline;fill:#c3d1cf;fill-opacity:1;stroke:#3b3b3b;stroke-width:0.476626;stroke-dasharray:none;stroke-opacity:0.675805"
         d="m -61.928124,64.532259 17.335855,34.789464 6.747743,13.539207 19.355946,7.20308 26.9689552,10.03418 v 0.002 l 162.8398748,60.59455 18.53131,6.8949 13.30076,4.94936 5.50825,-11.05351 63.26792,-126.952922 H 256.15892 L 195.3141,186.62725 176.71844,179.86103 234.19362,64.532259 H 220.36795 L 165.01614,175.60252 18.392869,122.24321 -10.369277,64.532259 H -24.194952 L 1.5023467,116.09672 -25.33284,106.33007 -46.161944,64.532259 Z m 33.058011,66.336351 7.850071,15.75228 19.3559449,7.20308 26.9689561,10.03418 134.455331,50.03377 18.52962,6.89491 13.30245,4.94935 5.39311,-10.82323 -13.30076,-4.94937 -18.53131,-6.8949 L 17.454788,148.10757 -9.5141681,138.07168 Z m 16.824483,33.75997 6.8459531,13.73562 19.3559449,7.20307 26.967264,10.03419 16.973492,6.31581 44.209996,16.45159 34.92231,12.99399 11.66165,4.33979 18.52963,6.89491 13.30245,4.95105 4.70225,-9.43816 -13.30245,-4.94937 -18.52962,-6.8949 L 34.279271,181.86753 7.3103159,171.83166 Z M 3.7730426,196.37189 104.99934,399.49384 174.55611,259.92285 161.25366,254.97179 104.99934,367.85383 23.13068,203.57496 Z m 46.3265944,17.23895 54.899703,110.16437 37.7247,-75.69832 -11.66165,-4.3398 -26.06305,52.29765 -37.927903,-76.10808 z" />
      <text
         xml:space="preserve"
         style="font-style:normal;font-variant:normal;font-weight:300;font-stretch:normal;font-size:147.146px;font-family:Montserrat;-inkscape-font-specification:'Montserrat Light';opacity:1;fill:#c3d1cf;fill-opacity:1;stroke:#3b3b3b;stroke-width:0.476626;stroke-dasharray:none;stroke-opacity:0.675805"
         x="50.554756"
         y="116.0343"
         id="text2362"
         transform="scale(1.0000112,0.99998879)"><tspan
           id="tspan2360"
           style="font-style:normal;font-variant:normal;font-weight:500;font-stretch:normal;font-size:147.146px;font-family:Montserrat;-inkscape-font-specification:'Montserrat Medium';fill:#c3d1cf;fill-opacity:1;stroke:#3b3b3b;stroke-width:0.476626;stroke-dasharray:none;stroke-opacity:0.675805"
           x="50.554756"
           y="116.0343">G</tspan></text>
    </g>
  </g>
  <g
     id="g591"
     transform="matrix(0.53556606,0,0,0.53556535,17.219129,-13.428381)"
     style="display:none;fill:#808080;fill-opacity:1;stroke:#404040;stroke-width:0.466796;stroke-dasharray:none;stroke-opacity:0.675805">
    <g
       id="g589"
       transform="matrix(0.66743925,0,0,0.66743925,77.888581,22.043574)"
       style="opacity:1;fill:#808080;fill-opacity:1;stroke:#404040;stroke-width:0.699383;stroke-dasharray:none;stroke-opacity:0.675805">
      <path
         id="path579"
         style="display:inline;fill:#808080;fill-opacity:1;stroke:#404040;stroke-width:0.699383;stroke-dasharray:none;stroke-opacity:0.675805"
         d="m -78.349221,62.749835 19.04122,38.212635 7.411532,14.87142 21.260032,7.91184 29.6219498,11.02151 v 0.002 l 178.8587772,66.55686 20.35428,7.57334 14.60918,5.43636 6.05012,-12.14114 69.49171,-139.444682 H 271.02873 L 204.19847,196.85858 183.77351,189.42659 246.90265,62.749835 H 231.71692 L 170.92004,184.74905 9.8731196,126.13936 -21.71842,62.749835 H -36.904157 L -8.6789594,119.38807 -38.153981,108.66041 -61.032089,62.749835 Z m 36.309998,72.863635 8.622299,17.30226 21.260031,7.91183 29.62195,11.02152 147.681983,54.95692 20.35242,7.57335 14.61104,5.43635 5.92365,-11.8882 -14.60918,-5.43637 L 171.07069,214.9178 8.8427583,154.54869 -20.779192,143.5253 Z m 18.479544,37.08184 7.519404,15.08716 21.2600306,7.91184 29.6200914,11.02151 18.643211,6.93727 48.559022,18.07037 38.3577,14.27256 12.80883,4.76681 20.35243,7.57334 14.61104,5.43823 5.16482,-10.36686 -14.61104,-5.43636 -20.35242,-7.57334 L 27.322302,191.63052 -2.2996478,180.60715 Z M -6.1848903,207.56206 104.99925,430.67056 181.39847,277.36623 166.78743,271.928 104.99925,395.91727 15.077,215.47389 Z m 50.8838413,18.9352 60.300299,121.00419 41.43576,-83.14678 -12.80883,-4.76682 -28.62693,57.44356 -41.658947,-83.59687 z" />
      <path
         id="path597"
         style="font-weight:normal;font-size:97.2156px;font-family:Montserrat;-inkscape-font-specification:Montserrat;display:inline;opacity:1;fill:#808080;fill-opacity:1;stroke:#404040;stroke-width:0.699383;stroke-dasharray:none;stroke-opacity:0.675805"
         d="m 216.03516,444.24185 c -2.81925,0 -5.05549,2.23552 -5.05549,4.86034 0,2.72202 2.23624,4.95863 5.05549,4.95863 2.91647,0 5.05549,-2.23625 5.05549,-5.05549 0,-2.62482 -2.23624,-4.76348 -5.05549,-4.76348 z m -244.788711,3.49996 c -20.804117,0 -35.969596,14.67865 -35.969596,34.60783 0,19.92918 15.164388,34.60927 35.871291,34.60927 9.429903,0 18.569209,-2.9166 24.9854317,-8.65232 v -25.95695 h -6.9030517 v 22.94274 c -5.249636,3.7914 -11.276916,5.25066 -17.790356,5.25066 -16.721066,0 -29.067991,-12.05563 -29.067991,-28.1934 0,-16.23499 12.346568,-28.19196 29.164851,-28.19196 7.971671,0 14.776829,2.33291 20.5125434,7.97141 l 4.4728882,-4.56831 c -6.027361,-6.51343 -14.9711666,-9.81897 -25.2760106,-9.81897 z m -78.453359,0.58261 -31.10927,68.05189 h 7.48565 l 8.16657,-18.17927 h 37.914012 l 8.165117,18.17927 h 7.58396 l -31.109269,-68.05189 z m 123.657865,0 v 68.05189 h 48.121858 v -6.22216 H 23.644585 v -25.27604 h 35.193274 v -6.12529 H 23.644585 v -24.20625 h 39.469552 v -6.22215 z m -120.157915,7.48566 16.331684,36.55369 h -32.664804 z m 209.7906,9.0412 c -8.846602,0 -15.748558,3.59718 -19.442748,9.81897 v -9.43008 h -6.611027 v 51.13614 h 6.903052 v -26.83159 c 0,-11.66586 6.901866,-18.47129 17.887213,-18.47129 9.72155,0 15.3602,5.54079 15.3602,16.33171 v 28.97117 h 6.9016 v -29.65208 c 0,-14.67954 -8.5547,-21.87295 -20.99829,-21.87295 z m 60.27412,0 c -14.58232,0 -25.66489,10.0139 -25.66489,24.69344 0,14.67954 11.08257,24.88716 25.66489,24.88716 8.36054,0 15.65101,-3.40239 19.9285,-9.91583 v 6.51273 c 0,12.63802 -5.92905,18.56815 -18.8587,18.56815 -7.87446,0 -15.26289,-2.62522 -20.12366,-6.99992 l -3.49996,5.25066 c 5.34686,5.05521 14.48464,7.87455 23.81734,7.87455 16.91549,0 25.56803,-7.97205 25.56803,-25.56807 v -44.91398 h -6.61103 v 9.81897 c -4.27747,-6.70786 -11.66555,-10.20786 -20.22052,-10.20786 z m 98.38186,0 c -8.84661,0 -15.74857,3.59718 -19.44275,9.81897 v -9.43008 h -6.61103 v 51.13614 h 6.90305 v -26.83159 c 0,-11.66586 6.90186,-18.47129 17.88722,-18.47129 9.72155,0 15.36019,5.54079 15.36019,16.33171 v 28.97117 h 6.90161 v -29.65208 c 0,-14.67954 -8.55471,-21.87295 -20.99829,-21.87295 z m 59.59321,0 c -14.38789,0 -24.98399,10.79134 -24.98399,25.95696 0,15.16561 10.88821,26.05381 26.83155,26.05381 8.06888,0 15.16565,-2.91623 19.73478,-8.36029 l -3.88884,-4.4729 c -3.88862,4.47192 -9.43043,6.7079 -15.65222,6.7079 -11.17979,0 -19.34594,-7.09667 -20.12366,-17.79038 h 42.77579 c 0,-0.77772 0.0969,-1.55485 0.0969,-2.13814 0,-15.36006 -10.40237,-25.95696 -24.79027,-25.95696 z m -111.79763,0.38889 v 51.13614 h 6.90305 v -51.13614 z m 111.79763,5.54124 c 10.0132,0 17.3043,6.99941 18.17924,17.01261 h -36.26162 c 0.87494,-10.0132 8.1664,-17.01261 18.08238,-17.01261 z m -157.29416,0.0969 c 11.277,0 19.44275,7.58388 19.44275,18.66645 0,11.08256 -8.16575,18.76187 -19.44275,18.76187 -11.277,0 -19.34589,-7.67931 -19.34589,-18.76187 0,-11.08257 8.06889,-18.66645 19.34589,-18.66645 z" />
      <path
         d="m 140.55703,98.953579 c -8.08115,5.171931 -16.97041,7.273031 -26.50617,7.273031 -26.021302,0 -44.931193,-18.586641 -44.931193,-43.476583 0,-25.213188 18.909891,-43.476588 45.092813,-43.476588 12.76822,0 23.43534,4.040575 32.80947,13.091463 L 157.04258,22.344276 C 146.69871,10.869043 131.50615,4.8889923 113.56599,4.8889923 c -35.072189,0 -60.608623,24.4050727 -60.608623,57.8610347 0,33.455961 25.536434,57.861033 60.285383,57.861033 15.83905,0 31.51648,-4.84869 42.83009,-14.38445 V 62.103535 h -15.51581 z"
         style="font-weight:500;font-size:161.623px;font-family:Montserrat;-inkscape-font-specification:'Montserrat Medium';display:inline;opacity:1;fill:#808080;fill-opacity:1;stroke:#404040;stroke-width:0.699383;stroke-dasharray:none;stroke-opacity:0.675805"
         id="path593" />
    </g>
  </g>
  <g
     id="g884"
     transform="matrix(0.47995627,0,0,0.47995627,24.47093,-3.0496753)"
     style="display:inline">
    <g
       id="g882"
       transform="matrix(1.0928483,0,0,1.0928483,32.199685,-20.493238)"
       style="display:inline;opacity:1;fill:#808080;fill-opacity:1;stroke:#3b3b3b;stroke-width:0.476627;stroke-dasharray:none;stroke-opacity:0.675805">
      <path
         id="path876"
         style="display:inline;fill:#808080;fill-opacity:1;stroke:#3b3b3b;stroke-width:0.476627;stroke-dasharray:none;stroke-opacity:0.675805"
         d="m -50.985409,73.792004 16.199431,32.509626 6.305405,12.65195 18.087098,6.73104 25.201049,9.37662 v 0.002 l 152.165166,56.62364 17.31652,6.44306 12.42885,4.62502 5.14717,-10.32915 59.12049,-118.633386 H 246.24995 L 189.39371,187.88581 172.01706,181.563 225.72455,73.792004 H 212.8052 L 161.08189,177.58356 24.07027,127.72102 -2.8064198,73.792004 H -15.725775 L 8.2869789,121.97732 -16.78907,112.8507 -36.252756,73.792004 Z m 30.890946,61.989166 7.335472,14.72 18.0870973,6.73104 25.2010497,9.37662 125.641324,46.75493 17.31494,6.44307 12.43043,4.62501 5.03958,-10.11396 -12.42885,-4.62502 -17.31652,-6.44306 -138.016376,-51.35938 -25.20105,-9.37821 z m 15.7215813,31.5476 6.3971774,12.83549 18.0870973,6.73104 25.199468,9.37662 15.860822,5.90192 41.311877,15.37348 32.63304,12.14246 10.89719,4.05539 17.31495,6.44307 12.43043,4.6266 4.394,-8.81966 -12.43043,-4.62502 -17.31494,-6.44306 -111.492535,-41.48909 -25.201049,-9.3782 z m 14.7817047,29.66309 94.590567,189.81088 64.99709,-130.42457 -12.43043,-4.6266 -52.56666,105.4846 L 28.497502,203.7229 Z m 43.289729,16.10924 51.300838,102.94503 35.25172,-70.73762 -10.89719,-4.0554 -24.35453,48.87045 -35.441597,-71.12053 z" />
      <path
         d="m 135.25055,104.59253 c -6.8751,4.40006 -14.43771,6.18759 -22.55033,6.18759 -22.137824,0 -38.225557,-15.812734 -38.225557,-36.988042 0,-21.450311 16.087733,-36.988037 38.363057,-36.988037 10.86266,0 19.93779,3.43755 27.91291,11.137662 l 8.52512,-8.525124 c -8.80013,-9.762642 -21.72532,-14.850216 -36.98804,-14.850216 -29.837931,0 -51.563247,20.762802 -51.563247,49.225715 0,28.462912 21.725316,49.225712 51.288247,49.225712 13.47519,0 26.81289,-4.12506 36.43803,-12.23767 V 73.24207 h -13.20019 z"
         style="font-weight:500;font-size:137.502px;font-family:Montserrat;-inkscape-font-specification:'Montserrat Medium';display:inline;opacity:1;fill:#808080;fill-opacity:1;stroke:#3b3b3b;stroke-width:0.476627;stroke-dasharray:none;stroke-opacity:0.675805"
         id="path1072" />
    </g>
  </g>
</svg>
