<?xml version="1.0" encoding="UTF-8" standalone="no"?>
<!-- Created with Inkscape (http://www.inkscape.org/) -->

<svg
   width="190mm"
   height="190mm"
   viewBox="0 0 190 190"
   version="1.1"
   id="svg5"
   inkscape:version="1.2.1 (9c6d41e410, 2022-07-14)"
   sodipodi:docname="age_logo.svg"
   inkscape:export-filename="age_logo_256.svg"
   inkscape:export-xdpi="34.22316"
   inkscape:export-ydpi="34.22316"
   xmlns:inkscape="http://www.inkscape.org/namespaces/inkscape"
   xmlns:sodipodi="http://sodipodi.sourceforge.net/DTD/sodipodi-0.dtd"
   xmlns="http://www.w3.org/2000/svg"
   xmlns:svg="http://www.w3.org/2000/svg">
  <sodipodi:namedview
     id="namedview7"
     pagecolor="#505050"
     bordercolor="#eeeeee"
     borderopacity="1"
     inkscape:showpageshadow="0"
     inkscape:pageopacity="0"
     inkscape:pagecheckerboard="0"
     inkscape:deskcolor="#505050"
     inkscape:document-units="mm"
     showgrid="false"
     inkscape:zoom="0.17416176"
     inkscape:cx="-100.4813"
     inkscape:cy="511.01919"
     inkscape:window-width="1920"
     inkscape:window-height="1011"
     inkscape:window-x="0"
     inkscape:window-y="0"
     inkscape:window-maximized="1"
     inkscape:current-layer="layer1" />
  <defs
     id="defs2" />
  <g
     inkscape:label="Layer 1"
     inkscape:groupmode="layer"
     id="layer1"
     transform="matrix(0.47995627,0,0,0.47995627,24.47093,-3.0496753)">
    <g
       id="g2967"
       transform="translate(41.949005,7.7100989)"
       style="fill:#808080">
      <path
         id="path2298"
         style="display:inline;fill:#808080;fill-opacity:1;stroke-width:9.98854"
         inkscape:label="A"
         inkscape:transform-center-y="33.063118"
         d="M 260.98564,73.792155 196.71865,202.75428 -28.48,118.95313 -50.98575,73.792155 H -2.80659 L 24.06967,127.7209 161.08158,177.58296 212.80562,73.792155 Z M -20.09401,135.78084 190.9556,214.31796 185.91627,224.43152 -12.75875,150.5013 Z m 15.72123,31.54817 184.526,68.66619 -4.39479,8.81888 L 135.11591,229.6905 102.48415,217.54739 61.17126,202.1736 2.02362,180.164 Z m 14.78239,29.66333 59.14848,22.01023 35.44142,71.12034 24.3542,-48.86936 40.64254,15.12422 -64.99674,130.4255 z"
         sodipodi:nodetypes="ccccccccccccccccccccccccccccc" />
      <path
         d="m 106.83749,43.195224 h 52.00267 v 67.989356 q -10.29028,3.49134 -21.49933,5.51265 -11.0253,2.0213 -25.17444,2.0213 -19.478031,0 -33.259656,-7.71771 -13.59787,-7.71771 -20.764316,-22.785619 -6.98269,-15.067911 -6.98269,-37.118511 0,-20.580561 7.901465,-35.648471 8.085221,-15.06791065 23.336886,-23.3368859 15.251665,-8.2689751 37.302261,-8.2689751 10.47404,0 20.58057,2.20506 10.10652,2.20506 18.3755,5.8801601 l -9.18775,22.2343559 q -6.06392,-3.123835 -13.78163,-5.1451404 -7.71771,-2.0213051 -16.17044,-2.0213051 -12.12783,0 -21.131826,5.5126505 -8.82024,5.51265 -13.781625,15.619175 -4.77763,9.92277 -4.77763,23.520641 0,12.86285 3.491345,22.78562 3.491345,9.922771 11.0253,15.619176 7.533956,5.51265 19.661786,5.51265 4.04261,0 6.98269,-0.183755 3.12384,-0.36751 5.69641,-0.73502 2.57257,-0.551265 4.96138,-0.918775 V 66.348355 h -24.80693 z"
         id="path2934"
         style="font-weight:bold;font-size:183.755px;font-family:'Noto Color Emoji';-inkscape-font-specification:'Noto Color Emoji Bold';opacity:0.971214;fill:#808080;stroke-width:20.8352"
         transform="translate(4.358687e-4,22.511711)" />
    </g>
    <g
       id="g1724"
       inkscape:label="BU"
       style="display:none">
      <path
         id="path305"
         style="fill:#5f8ab9;fill-opacity:1;stroke-width:7"
         inkscape:transform-center-x="1.3228346e-06"
         inkscape:transform-center-y="-27.040518"
         d="M 104.99979,18.213359 11.329024,274.20807 H 40.261108 L 104.99979,97.282951 169.73848,274.20807 h 28.9326 z"
         inkscape:label="A" />
      <path
         style="display:none;opacity:0.5;fill:none;fill-opacity:1;stroke:#5f8ab9;stroke-width:15;stroke-dasharray:none;stroke-opacity:1"
         d="M 11.928737,178.94422 187.05825,123.81477"
         id="path1980"
         sodipodi:nodetypes="cc"
         inkscape:label="line" />
      <path
         style="opacity:0.5;fill:#999999;fill-opacity:1;stroke:#ff0000;stroke-width:10;stroke-dasharray:none;stroke-opacity:1"
         d="M 14.539516,184.6835 194.23005,93.615897"
         id="path2701"
         sodipodi:nodetypes="cc" />
    </g>
  </g>
</svg>
